<svg width="28" height="28" viewBox="0 0 28 28" fill="none" xmlns="http://www.w3.org/2000/svg">
<g id="Accessibility Icon">
<g id="Line Duotone/Essentional UI/Accessibility">
<path id="Vector" d="M14 26C20.6274 26 26 20.6274 26 14C26 7.37258 20.6274 2 14 2C7.37258 2 2 7.37258 2 14C2 20.6274 7.37258 26 14 26Z" stroke="#AFB0B5" stroke-width="2"/>
<path id="Vector_2" d="M16.4 8.0001C16.4 9.32558 15.3255 10.4001 14 10.4001C12.6745 10.4001 11.6 9.32558 11.6 8.0001C11.6 6.67461 12.6745 5.6001 14 5.6001C15.3255 5.6001 16.4 6.67461 16.4 8.0001Z" stroke="#0E0D17" stroke-width="2"/>
<path id="Vector_3" d="M21.2 11.6001C21.2 11.6001 16.9553 13.4001 14 13.4001C11.0448 13.4001 6.80005 11.6001 6.80005 11.6001" stroke="#0E0D17" stroke-width="2" stroke-linecap="round"/>
<path id="Vector_4" d="M14 14V15.7426C14 16.433 14.1985 17.1087 14.5718 17.6894L17.6 22.4" stroke="#0E0D17" stroke-width="2" stroke-linecap="round"/>
<path id="Vector_5" d="M14 14V15.7426C14 16.433 13.8015 17.1087 13.4282 17.6894L10.4 22.4" stroke="#0E0D17" stroke-width="2" stroke-linecap="round"/>
</g>
</g>
</svg>
