<svg width="18" height="19" viewBox="0 0 18 19" fill="none" xmlns="http://www.w3.org/2000/svg">
<g id="Instagram-Fill--Streamline-Remix-Fill">
<path id="Vector" d="M9.7229 2.44189C10.5142 2.4432 10.9152 2.44739 11.2617 2.45771L11.3982 2.46217C11.5558 2.46777 11.7113 2.4748 11.8989 2.48359C12.6471 2.51816 13.1575 2.63652 13.6057 2.81054C14.0691 2.98926 14.4606 3.23066 14.8513 3.62149C15.2416 4.0123 15.483 4.40488 15.6623 4.86718C15.8357 5.31484 15.9541 5.82578 15.9893 6.57402C15.9977 6.76152 16.0044 6.91705 16.01 7.07472L16.0144 7.21119C16.0247 7.55765 16.0294 7.9587 16.0308 8.75003L16.0314 9.27428C16.0315 9.33833 16.0315 9.40443 16.0315 9.47263L16.0314 9.67098L16.031 10.1953C16.0296 10.9866 16.0255 11.3877 16.0152 11.7341L16.0107 11.8706C16.0051 12.0283 15.9981 12.1838 15.9893 12.3713C15.9547 13.1195 15.8357 13.6299 15.6623 14.0781C15.4836 14.5416 15.2416 14.933 14.8513 15.3238C14.4606 15.7141 14.0674 15.9554 13.6057 16.1347C13.1575 16.3082 12.6471 16.4265 11.8989 16.4617C11.7113 16.4701 11.5558 16.4769 11.3982 16.4824L11.2617 16.4868C10.9152 16.4971 10.5142 16.5018 9.7229 16.5033L9.19858 16.5039H9.00022H8.80187L8.27755 16.5034C7.48625 16.5021 7.08521 16.4979 6.73874 16.4876L6.60228 16.4831C6.4446 16.4775 6.28907 16.4705 6.10158 16.4617C5.35333 16.4272 4.84357 16.3082 4.39474 16.1347C3.93185 15.9561 3.53985 15.7141 3.14904 15.3238C2.75822 14.933 2.5174 14.5398 2.3381 14.0781C2.16408 13.6299 2.0463 13.1195 2.01115 12.3713C2.00279 12.1838 1.99598 12.0283 1.99046 11.8706L1.98604 11.7341C1.97575 11.3877 1.97106 10.9866 1.96954 10.1953L1.96945 8.75003C1.97076 7.9587 1.97494 7.55765 1.98526 7.21119L1.98972 7.07472C1.99533 6.91705 2.00236 6.76152 2.01115 6.57402C2.04571 5.82519 2.16408 5.31543 2.3381 4.86718C2.51681 4.4043 2.75822 4.0123 3.14904 3.62149C3.53985 3.23066 3.93244 2.98984 4.39474 2.81054C4.84298 2.63652 5.35275 2.51875 6.10158 2.48359C6.28907 2.47524 6.4446 2.46843 6.60228 2.46291L6.73874 2.45849C7.08521 2.44819 7.48625 2.4435 8.27755 2.44199L9.7229 2.44189ZM9.00022 5.95703C7.05755 5.95703 5.48458 7.5317 5.48458 9.47263C5.48458 11.4153 7.05925 12.9883 9.00022 12.9883C10.9429 12.9883 12.5158 11.4136 12.5158 9.47263C12.5158 7.52999 10.9411 5.95703 9.00022 5.95703ZM9.00022 7.36328C10.1652 7.36328 11.1096 8.30734 11.1096 9.47263C11.1096 10.6376 10.1655 11.582 9.00022 11.582C7.83522 11.582 6.89083 10.638 6.89083 9.47263C6.89083 8.30762 7.83486 7.36328 9.00022 7.36328ZM12.6916 4.90234C12.207 4.90234 11.8127 5.29603 11.8127 5.78065C11.8127 6.26528 12.2064 6.65957 12.6916 6.65957C13.1762 6.65957 13.5705 6.26589 13.5705 5.78065C13.5705 5.29603 13.1756 4.90174 12.6916 4.90234Z" fill="#1F396C"/>
</g>
</svg>
