<svg width="28" height="28" viewBox="0 0 28 28" fill="none" xmlns="http://www.w3.org/2000/svg">
<g id="Lamp Icon">
<g id="Line Duotone/Home Furniture/Floor Lamp">
<path id="Vector" d="M11.5997 4.4C11.5997 3.07452 12.6742 2 13.9997 2C15.3253 2 16.3997 3.07452 16.3997 4.4" stroke="#AFB0B5" stroke-width="2"/>
<path id="Vector_2" d="M14 21.2005V19.9246C14 18.387 13.2921 16.9365 12.0842 15.9991L7.42617 12.6696M7.42617 12.6696C7.40011 12.7054 7.37331 12.741 7.34577 12.7762C6.34841 14.053 4.68776 14.4918 3.24674 13.9869C2.60649 13.7626 2.51564 12.9589 2.93516 12.4218M7.42617 12.6696C8.34441 11.4042 8.35523 9.73204 7.55478 8.47204C7.18904 7.89632 6.3932 7.995 5.97367 8.53206M2.93516 12.4218L5.97367 8.53206M2.93516 12.4218C1.87059 11.5752 1.68779 10.0182 2.52685 8.94404C3.3659 7.86992 4.9091 7.68547 5.97367 8.53206" stroke="#AFB0B5" stroke-width="2" stroke-linecap="round"/>
<path id="Vector_3" d="M13.9999 21.2005V19.9246C13.9999 18.387 14.7078 16.9365 15.9157 15.9991L20.5737 12.6696M20.5737 12.6696C20.5998 12.7054 20.6265 12.741 20.6541 12.7762C21.6514 14.053 23.3121 14.4918 24.7532 13.9869C25.3934 13.7626 25.4842 12.9589 25.0647 12.4218M20.5737 12.6696C19.6555 11.4042 19.6447 9.73204 20.4451 8.47204C20.8108 7.89632 21.6067 7.995 22.0262 8.53206M25.0647 12.4218L22.0262 8.53206M25.0647 12.4218C26.1292 11.5752 26.3121 10.0182 25.4731 8.94404C24.6339 7.86992 23.0907 7.68547 22.0262 8.53206" stroke="#AFB0B5" stroke-width="2" stroke-linecap="round"/>
<path id="Vector_4" d="M10.4006 25.9998H17.6006" stroke="#0E0D17" stroke-width="2" stroke-linecap="round"/>
<path id="Vector_5" d="M13.9999 26.0005V8.00049" stroke="#0E0D17" stroke-width="2" stroke-linecap="round"/>
<path id="Vector_6" d="M14.0002 8.00015C15.5757 8.00015 16.9149 6.98798 17.403 5.57841C17.6198 4.95215 17.0629 4.40015 16.4002 4.40015H11.6002C10.9374 4.40015 10.3806 4.95215 10.5974 5.57841C11.0854 6.98798 12.4246 8.00015 14.0002 8.00015Z" stroke="#0E0D17" stroke-width="2"/>
</g>
</g>
</svg>
