<svg width="18" height="19" viewBox="0 0 18 19" fill="none" xmlns="http://www.w3.org/2000/svg">
<g id="Linkedin--Streamline-Unicons">
<path id="Vector" d="M16.0036 1.20422H1.99647C1.83904 1.20197 1.68266 1.23087 1.53634 1.28909C1.39009 1.34738 1.25671 1.43386 1.14379 1.54362C1.03094 1.65345 0.940796 1.78437 0.878569 1.929C0.816272 2.07364 0.783155 2.22917 0.780975 2.3866V16.5591C0.783155 16.7165 0.816272 16.872 0.878569 17.0167C0.940866 17.1613 1.03094 17.2922 1.14379 17.402C1.25671 17.5119 1.39009 17.5984 1.53634 17.6566C1.68266 17.7149 1.83904 17.7437 1.99647 17.7414H16.0036C16.161 17.7437 16.3174 17.7149 16.4636 17.6566C16.61 17.5984 16.7433 17.5119 16.8562 17.402C16.9691 17.2922 17.0592 17.1612 17.1215 17.0167C17.1838 16.872 17.2169 16.7165 17.2191 16.5591V2.3866C17.2169 2.22917 17.1838 2.07371 17.1215 1.929C17.0592 1.78437 16.9691 1.65345 16.8562 1.54362C16.7433 1.43386 16.61 1.34731 16.4636 1.28909C16.3174 1.23087 16.161 1.20197 16.0036 1.20422ZM5.76698 15.0459H3.28635V7.60414H5.76698V15.0459ZM4.52666 6.56225C4.18459 6.56225 3.85651 6.4264 3.61457 6.18446C3.37269 5.94258 3.23678 5.6145 3.23678 5.27236C3.23678 4.93029 3.37269 4.60215 3.61457 4.36027C3.85651 4.11832 4.18459 3.98248 4.52666 3.98248C4.70835 3.96188 4.89229 3.97988 5.06652 4.03529C5.24076 4.09069 5.40128 4.18231 5.53762 4.30409C5.67402 4.42587 5.78308 4.57508 5.85782 4.74193C5.93249 4.90878 5.97116 5.08955 5.97116 5.27236C5.97116 5.45518 5.93249 5.63595 5.85782 5.8028C5.78308 5.96965 5.67402 6.11886 5.53762 6.24064C5.40128 6.36242 5.24076 6.45404 5.06652 6.50944C4.89229 6.56492 4.70835 6.58285 4.52666 6.56225ZM14.7136 15.0459H12.2331V11.0521C12.2331 10.0516 11.8775 9.39844 10.9762 9.39844C10.6973 9.40048 10.4257 9.48795 10.198 9.64911C9.97033 9.81026 9.7975 10.0373 9.70286 10.2997C9.6381 10.4941 9.61005 10.6987 9.62017 10.9033V15.0376H7.13955V7.59584H9.62017V8.64596C9.84545 8.25495 10.1733 7.93278 10.5681 7.71425C10.963 7.49572 11.41 7.38905 11.861 7.40564C13.5147 7.40564 14.7136 8.47229 14.7136 10.7627V15.0459Z" fill="#1F396C"/>
</g>
</svg>
