<svg width="148" height="48" viewBox="0 0 148 48" fill="none" xmlns="http://www.w3.org/2000/svg">
<g clip-path="url(#clip0_5661_317)">
<path d="M38.6774 32.8543C38.6733 33.1682 38.619 33.4765 38.5546 33.7832C38.4176 34.4383 38.187 35.0637 37.8796 35.6635C37.6949 36.0238 37.4886 36.3705 37.2622 36.7077C36.9422 37.1841 36.5888 37.6366 36.212 38.073C35.9822 38.3389 35.7466 38.5999 35.5043 38.8554C35.1593 39.2205 34.8034 39.5745 34.4399 39.9228C34.1575 40.1927 33.8735 40.4601 33.5852 40.7236C33.2911 40.9926 32.9962 41.2593 32.698 41.5235C32.3964 41.7902 32.0972 42.0585 31.7915 42.3203C31.4857 42.5822 31.1832 42.848 30.8791 43.1115C30.5667 43.3822 30.2525 43.652 29.9392 43.9227C29.6376 44.1837 29.336 44.444 29.0352 44.7058C28.7253 44.9749 28.4162 45.2432 28.1079 45.5138C27.8104 45.7741 27.5147 46.0351 27.2198 46.297C26.9131 46.5692 26.6073 46.8423 26.3024 47.1154C26.1236 47.2755 25.9465 47.4389 25.7685 47.5998C25.7418 47.6239 25.7117 47.6455 25.6791 47.6711C25.6449 47.6343 25.6566 47.5966 25.6566 47.5622C25.6557 47.3044 25.6566 47.0473 25.6566 46.7895C25.6566 42.5437 25.6566 38.298 25.6541 34.0523C25.6541 33.9418 25.6892 33.8673 25.771 33.7936C26.1036 33.4933 26.406 33.1658 26.6993 32.8303C26.9892 32.4972 27.2599 32.1496 27.5138 31.7909C27.9383 31.1903 28.3117 30.5617 28.6334 29.9059C28.9684 29.2236 29.2474 28.5205 29.4739 27.7974C29.7003 27.0751 29.8766 26.3424 30.0044 25.5977C30.1113 24.9731 30.1865 24.3453 30.2341 23.7142C30.2993 22.8582 30.3077 22.0014 30.2684 21.1445C30.2375 20.4647 30.1782 19.7872 30.0871 19.1122C29.9718 18.2553 29.8206 17.4041 29.5942 16.5665C29.4881 16.1757 29.3678 15.7881 29.2541 15.399C29.1856 15.1659 29.1171 14.9321 29.0486 14.6991C29.0352 14.6534 29.0194 14.6078 29.0027 14.5565C28.9375 14.5894 28.9099 14.6478 28.8732 14.6967C28.7136 14.9081 28.5582 15.1219 28.3994 15.3341C28.1513 15.6656 27.904 15.9971 27.6534 16.3271C27.5748 16.4312 27.4913 16.5321 27.4036 16.6298C27.1838 16.8748 26.9591 17.115 26.7118 17.3368C26.3843 17.6315 26.0367 17.9006 25.6633 18.1408C25.3876 18.3186 25.1035 18.4804 24.8052 18.6205C24.309 18.8535 23.8018 19.0601 23.2721 19.2155C22.9563 19.3084 22.6372 19.3828 22.3189 19.4621C21.795 19.5926 21.2595 19.6631 20.7281 19.7528C20.0973 19.8593 19.459 19.9129 18.8257 19.9986C18.1081 20.0947 17.3862 20.1596 16.6727 20.2821C16.194 20.3646 15.7119 20.4343 15.2407 20.552C14.9115 20.6345 14.5782 20.7057 14.254 20.8098C13.9892 20.8947 13.7227 20.978 13.4628 21.0757C13.0601 21.227 12.6641 21.396 12.2857 21.5978C12.0484 21.7243 11.8078 21.8468 11.5889 22.0022C11.5237 22.0486 11.4535 22.0614 11.3741 22.0614C7.63707 22.0598 3.9 22.0606 0.162919 22.0606C0.126158 22.0606 0.0893975 22.0606 0.0309143 22.0606C0.0977522 21.9814 0.147881 21.9189 0.202187 21.8596C0.408549 21.6322 0.618253 21.408 0.822108 21.179C1.17134 20.789 1.51722 20.3958 1.86394 20.0042C2.03772 19.808 2.2115 19.6127 2.38445 19.4157C2.6777 19.0809 2.96928 18.7446 3.26169 18.4091C3.42628 18.2201 3.59087 18.0311 3.75462 17.8413C4.12892 17.4089 4.50237 16.9757 4.8775 16.5433C5.07551 16.3143 5.27602 16.0876 5.4757 15.8594C5.81574 15.471 6.1541 15.0819 6.49581 14.6951C6.68881 14.4765 6.88598 14.2611 7.08399 14.0464C7.37807 13.7277 7.67467 13.4098 7.97043 13.0927C8.06233 12.9942 8.15757 12.8981 8.25365 12.8028C8.58533 12.4761 8.91284 12.1462 9.25873 11.8331C9.55365 11.5656 9.85275 11.3022 10.1652 11.0531C10.537 10.7569 10.9197 10.4766 11.3257 10.2243C11.6315 10.0346 11.9456 9.86078 12.2723 9.70623C12.8036 9.45399 13.3584 9.27141 13.9382 9.14969C14.2507 9.08403 14.5648 9.04639 14.8815 9.02157C14.9775 9.01836 15.0761 9.03518 15.1697 8.99915C22.7366 8.99915 30.3035 8.99915 37.8712 8.99915C37.8846 9.00555 37.8979 9.01356 37.9122 9.01676C38.3616 9.11366 38.6006 9.35709 38.6808 9.79912C38.6833 9.81274 38.6933 9.82475 38.7 9.83756V32.4884C38.6666 32.6085 38.6774 32.7318 38.6783 32.8535L38.6774 32.8543Z" fill="url(#paint0_radial_5661_317)"/>
<path d="M38.6774 32.8543C38.6774 32.7318 38.667 32.6093 38.6982 32.4891V32.8647C38.691 32.8615 38.6838 32.8583 38.6774 32.8551V32.8543Z" fill="#45C1C5"/>
<path d="M15.1697 8.99915C15.0761 9.03518 14.9784 9.01836 14.8815 9.02157C14.8781 9.01436 14.874 9.00715 14.8698 8.99915C14.9692 8.99915 15.0695 8.99915 15.1689 8.99915H15.1697Z" fill="#45C1C5"/>
<path d="M25.6891 22.5964C25.5571 22.7077 25.4251 22.8198 25.294 22.9319C25.1561 23.0496 25.0082 23.1545 24.8595 23.2578C24.6398 23.4116 24.4142 23.5573 24.1811 23.6934C23.8377 23.8944 23.4885 24.085 23.1301 24.2612C22.7583 24.4446 22.3807 24.6143 21.9972 24.7729C21.5118 24.9739 21.0188 25.1557 20.5209 25.327C20.2502 25.4199 19.9737 25.4952 19.7038 25.5873C19.393 25.6938 19.0714 25.7643 18.7581 25.8603C18.4397 25.9572 18.1131 26.0213 17.7922 26.1062C17.3561 26.2223 16.9117 26.2984 16.4722 26.3985C16.0887 26.4858 15.696 26.5338 15.3167 26.6387C15.0076 26.7244 14.6968 26.8061 14.396 26.9166C14.1705 26.9991 13.9474 27.0879 13.7285 27.1848C13.3776 27.341 13.0351 27.5148 12.7059 27.7093C12.4452 27.8631 12.1912 28.0289 11.9456 28.2042C11.5855 28.4605 11.2455 28.7407 10.9196 29.0362C10.6498 29.2813 10.3941 29.5399 10.151 29.8098C9.81514 30.1829 9.501 30.5713 9.21193 30.9789C9.01977 31.2496 8.8368 31.5251 8.66385 31.8069C8.33802 32.3362 8.05062 32.884 7.80248 33.4509C7.73564 33.6031 7.67382 33.7568 7.60531 33.9186C7.55602 33.8593 7.56437 33.7905 7.55518 33.7312C7.50087 33.3596 7.46996 32.9865 7.45158 32.6117C7.4332 32.2289 7.44323 31.847 7.46161 31.465C7.47915 31.1167 7.51591 30.7691 7.56521 30.4232C7.63204 29.9531 7.72478 29.4879 7.84676 29.0282C8.0314 28.3283 8.28037 27.6501 8.59785 26.995C8.86687 26.4409 9.17684 25.9092 9.53525 25.4031C9.79843 25.0315 10.0808 24.676 10.3883 24.3373C10.6506 24.049 10.9196 23.7687 11.2187 23.5149C11.4368 23.3299 11.664 23.1569 11.8996 22.992C12.2781 22.7261 12.6842 22.5051 13.1044 22.3081C13.4144 22.1632 13.7335 22.0398 14.0585 21.9253C14.3543 21.8212 14.6567 21.7435 14.9575 21.6555C15.361 21.5369 15.7771 21.4705 16.1881 21.3856C16.7847 21.2631 17.3904 21.2046 17.9919 21.1149C18.5676 21.0293 19.1474 20.9796 19.7239 20.9027C20.4257 20.809 21.1283 20.7218 21.8234 20.5888C22.232 20.5103 22.643 20.4335 23.044 20.323C23.3423 20.2413 23.6389 20.154 23.933 20.0587C24.1652 19.9834 24.395 19.8994 24.6197 19.8065C24.9957 19.6503 25.3658 19.4789 25.7192 19.2804C26.0066 19.1186 26.2865 18.944 26.5539 18.7526C26.8922 18.5108 27.2156 18.2506 27.513 17.9639C27.8839 17.6075 28.2323 17.2312 28.5356 16.818C28.5506 16.7979 28.5632 16.7731 28.605 16.7683C28.6509 16.8772 28.6735 16.9957 28.7019 17.111C28.8213 17.6051 28.9199 18.1032 29.0001 18.6037C29.0594 18.9705 29.1087 19.338 29.1488 19.7072C29.204 20.2157 29.2433 20.7242 29.2675 21.2351C29.2951 21.8092 29.2925 22.3826 29.2758 22.9559C29.2633 23.3779 29.2332 23.8007 29.1873 24.2212C29.128 24.7585 29.0511 25.2926 28.945 25.8235C28.7988 26.557 28.6058 27.2785 28.3551 27.9856C28.1672 28.5149 27.9483 29.0314 27.6968 29.5367C27.4186 30.0949 27.1011 30.6306 26.7427 31.1447C26.4845 31.5146 26.208 31.871 25.9089 32.2113C25.6691 32.4844 25.421 32.7478 25.1578 33.0001C24.8545 33.2916 24.537 33.5678 24.2028 33.8265C23.8352 34.1108 23.4534 34.3734 23.0516 34.6112C22.7182 34.8082 22.3757 34.986 22.0248 35.1526C21.8217 35.2487 21.6112 35.3271 21.4057 35.4176C21.1609 35.5257 20.9036 35.5978 20.6529 35.6883C20.3438 35.7996 20.0221 35.8701 19.7063 35.9574C19.271 36.0775 18.8249 36.1431 18.3813 36.2256C17.8349 36.3265 17.2818 36.3746 16.7295 36.4242C16.3135 36.4618 15.8957 36.4763 15.4797 36.5075C15.0778 36.5379 14.6759 36.5467 14.2732 36.5579C13.848 36.57 13.4219 36.5804 12.9975 36.6028C12.7142 36.6172 12.431 36.6228 12.1486 36.6556C11.7986 36.6965 11.4669 36.7966 11.1469 36.9303C10.623 37.1489 10.1769 37.4724 9.79676 37.8824C9.37568 38.3365 9.10248 38.8642 8.91199 39.4383C8.76996 39.866 8.6555 40.3 8.5778 40.7428C8.526 41.0399 8.48506 41.3386 8.46752 41.6397C8.46083 41.7606 8.45499 41.8823 8.44663 42.0032C8.42407 42.3187 8.11578 42.5277 7.80332 42.4453C7.60614 42.3932 7.44991 42.1994 7.43738 41.9832C7.40396 41.4058 7.39143 40.8285 7.41983 40.2511C7.46244 39.3679 7.59946 38.4974 7.84008 37.6422C8.04644 36.9095 8.3163 36.2 8.64631 35.5097C8.90781 34.9644 9.20274 34.4375 9.52773 33.925C9.75916 33.5606 10.004 33.2051 10.2604 32.8567C10.603 32.3907 10.9698 31.9431 11.3491 31.505C11.7167 31.0806 12.1077 30.6762 12.5237 30.2959C12.7736 30.0676 13.0317 29.8482 13.3016 29.6416C13.5414 29.4582 13.7853 29.2813 14.0368 29.1131C14.3234 28.9225 14.6183 28.7447 14.9207 28.5782C15.2733 28.3836 15.6342 28.2082 16.0035 28.0449C16.4455 27.8495 16.8966 27.6773 17.3536 27.5164C17.6201 27.4227 17.8917 27.3442 18.1565 27.2497C18.4372 27.1496 18.7271 27.0791 19.0079 26.983C19.2969 26.8845 19.5935 26.8101 19.8809 26.7068C20.1324 26.6163 20.3897 26.5434 20.6387 26.4497C21.0665 26.2888 21.4926 26.1222 21.9044 25.9268C22.2445 25.7651 22.5753 25.5865 22.8937 25.3879C23.2596 25.1589 23.608 24.9058 23.9363 24.6279C24.2271 24.3821 24.4994 24.1179 24.7551 23.8392C25.0818 23.4828 25.3792 23.1041 25.6524 22.7085C25.6733 22.6781 25.6983 22.6492 25.7034 22.6108C25.715 22.6028 25.7226 22.594 25.7176 22.5796C25.7326 22.5812 25.7401 22.5788 25.7292 22.5635C25.7251 22.5691 25.7217 22.5748 25.7176 22.5804C25.7034 22.5804 25.6958 22.5876 25.6925 22.6004L25.6891 22.5964Z" fill="#45C1C5"/>
<path d="M25.7142 22.5764L25.7254 22.5596C25.7359 22.5748 25.7286 22.578 25.7142 22.5756V22.5764Z" fill="white"/>
<path d="M25.6891 22.5963C25.6925 22.5843 25.7008 22.5763 25.7142 22.5763C25.7192 22.5907 25.7117 22.6003 25.7 22.6075C25.6967 22.6035 25.6925 22.5995 25.6891 22.5963Z" fill="white"/>
</g>
<path d="M44.977 29.9991V8.67565H52.464C56.5911 8.67565 59.9643 11.9165 59.9643 15.8849C59.9643 19.8401 56.5911 23.0677 52.464 23.0677H49.2628V29.9991H44.977ZM52.464 18.8347C54.2366 18.848 55.6784 17.4987 55.6784 15.8452C55.6784 14.2314 54.2366 12.9218 52.464 12.9218H49.2628V18.8215L52.464 18.8347ZM72.716 29.9991L71.3668 27.0229H62.8347L61.4723 29.9991H56.8425L67.028 8.14654H67.1603L77.3591 29.9991H72.716ZM64.5015 23.3719H69.7001L67.1074 17.6707L64.5015 23.3719ZM79.502 29.9991V8.67565H86.989C91.1161 8.67565 94.4893 11.9165 94.4893 15.8849C94.4893 19.8401 91.1161 23.0677 86.989 23.0677H83.7878V29.9991H79.502ZM86.989 18.8347C88.7616 18.848 90.2034 17.4987 90.2034 15.8452C90.2034 14.2314 88.7616 12.9218 86.989 12.9218H83.7878V18.8215L86.989 18.8347ZM101.196 25.7397H109.768V29.9991H96.91V8.67565H101.196V25.7397ZM126.475 29.9991L125.125 27.0229H116.593L115.231 29.9991H110.601L120.786 8.14654H120.919L131.118 29.9991H126.475ZM118.26 23.3719H123.459L120.866 17.6707L118.26 23.3719ZM136.753 30.4754C134.954 30.4754 133.353 29.9727 131.964 29.007L134.134 25.2503C134.874 25.872 135.681 26.2027 136.779 26.2027H136.872C139.226 26.2027 141.118 24.2053 141.118 21.9036L141.039 8.67565L145.324 8.68888L145.404 21.9301C145.404 26.7318 141.621 30.4754 136.898 30.4754H136.753Z" fill="#1F396C"/>
<path d="M47.0582 45.102C45.8416 45.102 44.8959 44.4684 44.5424 43.6788L45.1851 43.206C45.5203 43.8395 46.2778 44.2619 47.0628 44.2619C48.0315 44.2619 48.8211 43.7385 48.8211 43.0086C48.8211 42.1776 47.7606 41.7782 46.8149 41.4201C45.9059 41.0666 44.8913 40.6213 44.8913 39.4782C44.8913 38.3397 45.9151 37.4904 47.2143 37.4904C48.3115 37.4904 49.0598 38.0918 49.3353 38.8217L48.7063 39.2441C48.4676 38.6886 47.8708 38.3121 47.2051 38.3121C46.4109 38.3121 45.7315 38.8355 45.7315 39.4966C45.7315 40.2127 46.544 40.4744 47.4989 40.8417C48.6099 41.2916 49.6612 41.8058 49.6612 42.9948C49.6612 44.271 48.4814 45.102 47.0582 45.102ZM54.3529 45.0974C52.2686 45.0974 50.5562 43.3896 50.5562 41.3054C50.5562 39.2073 52.2686 37.495 54.3575 37.495C56.4509 37.495 58.1633 39.2073 58.1633 41.3054C58.1633 43.3896 56.4509 45.0974 54.3529 45.0974ZM54.3529 44.2527C55.9872 44.2527 57.3186 42.9259 57.3186 41.3008C57.3186 39.671 55.9872 38.3351 54.3529 38.3351C52.7277 38.3351 51.401 39.671 51.401 41.3008C51.401 42.9259 52.7277 44.2527 54.3529 44.2527ZM63.8741 38.4131H60.3621V40.8784H63.4058V41.7139H60.3621V45.0102H59.5266V37.5822H63.8741V38.4131ZM69.663 37.6005V38.4269H67.519V45.001H66.6835V38.4269H64.5304V37.6005H69.663ZM72.4999 45.0469L70.2045 37.6005H71.0997L72.7065 43.004L74.5153 38.2019H74.5796L76.3792 43.004L77.986 37.6005H78.8858L76.5903 45.0469H76.4618L74.5382 40.1393L72.6239 45.0469H72.4999ZM84.188 45.001L83.6463 43.7844H79.6063L79.0646 45.001H78.1602L81.5804 37.4858H81.6722L85.097 45.001H84.188ZM79.9323 43.0591H83.3249L81.6309 39.2532L79.9323 43.0591ZM91.501 45.001H90.4681L88.4022 42.1133H87.0204V45.001H86.1848L86.1802 37.6005H88.3655C89.7381 37.6005 90.8583 38.6564 90.8583 39.9602C90.8583 40.9197 90.2018 41.7461 89.302 42.0169L91.501 45.001ZM87.0158 41.4063L88.393 41.4109C89.2745 41.4109 89.9998 40.7407 89.9998 39.9419C89.9998 39.088 89.2653 38.4269 88.393 38.4269H87.0158V41.4063ZM96.8951 38.4223H93.3831V40.7636H96.4268V41.5992H93.3831V44.17H96.8951V45.001H92.5476V37.6005H96.8951V38.4223ZM103.4 45.102C102.183 45.102 101.238 44.4684 100.884 43.6788L101.527 43.206C101.862 43.8395 102.619 44.2619 103.405 44.2619C104.373 44.2619 105.163 43.7385 105.163 43.0086C105.163 42.1776 104.102 41.7782 103.157 41.4201C102.248 41.0666 101.233 40.6213 101.233 39.4782C101.233 38.3397 102.257 37.4904 103.556 37.4904C104.653 37.4904 105.402 38.0918 105.677 38.8217L105.048 39.2441C104.809 38.6886 104.213 38.3121 103.547 38.3121C102.753 38.3121 102.073 38.8355 102.073 39.4966C102.073 40.2127 102.886 40.4744 103.841 40.8417C104.952 41.2916 106.003 41.8058 106.003 42.9948C106.003 44.271 104.823 45.102 103.4 45.102ZM111.636 38.4223H108.124V40.7636H111.167V41.5992H108.124V44.17H111.636V45.001H107.288V37.6005H111.636V38.4223ZM118.471 45.001H117.438L115.372 42.1133H113.991V45.001H113.155L113.151 37.6005H115.336C116.708 37.6005 117.829 38.6564 117.829 39.9602C117.829 40.9197 117.172 41.7461 116.272 42.0169L118.471 45.001ZM113.986 41.4063L115.363 41.4109C116.245 41.4109 116.97 40.7407 116.97 39.9419C116.97 39.088 116.236 38.4269 115.363 38.4269H113.986V41.4063ZM124.233 37.6005H125.132L121.763 45.1157H121.662L118.306 37.6005H119.192L121.708 43.3345L124.233 37.6005ZM126.216 45.001V37.6005H127.051V45.001H126.216ZM132.216 45.0974C130.159 45.0974 128.41 43.4034 128.41 41.3054C128.41 39.2257 130.136 37.495 132.211 37.495C133.161 37.5041 134.084 37.9403 134.754 38.6151L134.268 39.2716C133.735 38.7253 132.992 38.3443 132.179 38.3443C130.692 38.3443 129.255 39.6297 129.255 41.3054C129.255 42.9764 130.678 44.2573 132.193 44.2573C133.028 44.2573 133.74 43.8624 134.272 43.3391L134.754 44.0094C134.139 44.6199 133.308 45.0974 132.216 45.0974ZM140.305 38.4223H136.793V40.7636H139.836V41.5992H136.793V44.17H140.305V45.001H135.957V37.6005H140.305V38.4223ZM143.867 45.102C142.65 45.102 141.705 44.4684 141.351 43.6788L141.994 43.206C142.329 43.8395 143.086 44.2619 143.871 44.2619C144.84 44.2619 145.63 43.7385 145.63 43.0086C145.63 42.1776 144.569 41.7782 143.624 41.4201C142.715 41.0666 141.7 40.6213 141.7 39.4782C141.7 38.3397 142.724 37.4904 144.023 37.4904C145.12 37.4904 145.868 38.0918 146.144 38.8217L145.515 39.2441C145.276 38.6886 144.679 38.3121 144.014 38.3121C143.22 38.3121 142.54 38.8355 142.54 39.4966C142.54 40.2127 143.353 40.4744 144.308 40.8417C145.419 41.2916 146.47 41.8058 146.47 42.9948C146.47 44.271 145.29 45.102 143.867 45.102Z" fill="#4C6189"/>
<defs>
<radialGradient id="paint0_radial_5661_317" cx="0" cy="0" r="1" gradientUnits="userSpaceOnUse" gradientTransform="translate(61.0629 -10.8028) rotate(139.275) scale(59.6312 46.3903)">
<stop stop-color="#8AB2FF"/>
<stop offset="1" stop-color="#1F396C"/>
</radialGradient>
<clipPath id="clip0_5661_317">
<rect width="38.7" height="38.7" fill="white" transform="translate(0 8.99915)"/>
</clipPath>
</defs>
</svg>
