<svg width="28" height="28" viewBox="0 0 28 28" fill="none" xmlns="http://www.w3.org/2000/svg">
<g id="Forward--Streamline-Solar">
<g id="Bold Duotone/Arrows Action/Forward">
<path id="Vector" fill-rule="evenodd" clip-rule="evenodd" d="M16.1507 7.94876C16.4711 7.62841 16.9904 7.62841 17.3108 7.94876L22.7795 13.4175C23.0999 13.7379 23.0999 14.2572 22.7795 14.5776L17.3108 20.0463C16.9904 20.3667 16.4711 20.3667 16.1507 20.0463C15.8304 19.726 15.8304 19.2066 16.1507 18.8863L21.0394 13.9976L16.1507 9.10885C15.8304 8.78851 15.8304 8.26911 16.1507 7.94876Z" fill="white"/>
<g id="Forward Icon Container">
<path id="Vector_2" d="M20.2191 13.1772H11.262C10.2193 13.1772 8.67347 13.4833 7.36474 14.4257C6.01419 15.398 4.97296 17.0115 4.97296 19.4663C4.97296 19.9193 5.34023 20.2866 5.79327 20.2866C6.24632 20.2866 6.61359 19.9193 6.61359 19.4663C6.61359 17.5461 7.39527 16.4252 8.32337 15.7571C9.2933 15.0587 10.4818 14.8179 11.262 14.8179H20.2191L21.0394 13.9976L20.2191 13.1772Z" fill="#ADAEB3"/>
<path id="Vector_3" d="M22.9585 13.6832C22.9986 13.7799 23.0207 13.886 23.0207 13.9972C23.0207 13.8904 22.9999 13.7835 22.9585 13.6832Z" fill="white"/>
</g>
</g>
</g>
</svg>
